<mxfile host="app.diagrams.net" modified="2021-11-10T15:29:39.637Z" agent="5.0 (X11; Linux x86_64) AppleWebKit/537.36 (KHTML, like Gecko) Chrome/95.0.4638.69 Safari/537.36" etag="pNyGA4JJT1oKnQ9_ZwDA" version="15.6.8" type="github">
  <diagram id="YjP2luyD3A1gga2x-_5z" name="Page-1">
    <mxGraphModel dx="3009" dy="1942" grid="1" gridSize="10" guides="1" tooltips="1" connect="1" arrows="1" fold="1" page="1" pageScale="1" pageWidth="827" pageHeight="1169" math="0" shadow="0">
      <root>
        <mxCell id="0" />
        <mxCell id="1" parent="0" />
        <mxCell id="qBSy8Zu0NFItvnrf-ppq-13" value="Admitted" style="edgeStyle=orthogonalEdgeStyle;rounded=0;orthogonalLoop=1;jettySize=auto;html=1;entryX=0.5;entryY=0;entryDx=0;entryDy=0;" edge="1" parent="1" source="qBSy8Zu0NFItvnrf-ppq-14" target="qBSy8Zu0NFItvnrf-ppq-17">
          <mxGeometry relative="1" as="geometry" />
        </mxCell>
        <mxCell id="qBSy8Zu0NFItvnrf-ppq-14" value="NEW" style="ellipse;whiteSpace=wrap;html=1;aspect=fixed;" vertex="1" parent="1">
          <mxGeometry x="-980" y="-1000" width="80" height="80" as="geometry" />
        </mxCell>
        <mxCell id="qBSy8Zu0NFItvnrf-ppq-15" style="edgeStyle=orthogonalEdgeStyle;rounded=0;orthogonalLoop=1;jettySize=auto;html=1;" edge="1" parent="1" source="qBSy8Zu0NFItvnrf-ppq-17" target="qBSy8Zu0NFItvnrf-ppq-25">
          <mxGeometry relative="1" as="geometry" />
        </mxCell>
        <mxCell id="qBSy8Zu0NFItvnrf-ppq-16" value="Scheduler dispatch" style="edgeLabel;html=1;align=center;verticalAlign=middle;resizable=0;points=[];" vertex="1" connectable="0" parent="qBSy8Zu0NFItvnrf-ppq-15">
          <mxGeometry x="-0.1086" relative="1" as="geometry">
            <mxPoint as="offset" />
          </mxGeometry>
        </mxCell>
        <mxCell id="qBSy8Zu0NFItvnrf-ppq-17" value="READY" style="ellipse;whiteSpace=wrap;html=1;aspect=fixed;" vertex="1" parent="1">
          <mxGeometry x="-980" y="-840" width="80" height="80" as="geometry" />
        </mxCell>
        <mxCell id="qBSy8Zu0NFItvnrf-ppq-18" style="edgeStyle=orthogonalEdgeStyle;rounded=0;orthogonalLoop=1;jettySize=auto;html=1;entryX=0.5;entryY=1;entryDx=0;entryDy=0;" edge="1" parent="1" source="qBSy8Zu0NFItvnrf-ppq-20" target="qBSy8Zu0NFItvnrf-ppq-17">
          <mxGeometry relative="1" as="geometry" />
        </mxCell>
        <mxCell id="qBSy8Zu0NFItvnrf-ppq-19" value="I/O or event completion" style="edgeLabel;html=1;align=center;verticalAlign=middle;resizable=0;points=[];" vertex="1" connectable="0" parent="qBSy8Zu0NFItvnrf-ppq-18">
          <mxGeometry x="-0.1406" relative="1" as="geometry">
            <mxPoint as="offset" />
          </mxGeometry>
        </mxCell>
        <mxCell id="qBSy8Zu0NFItvnrf-ppq-20" value="WAITING" style="ellipse;whiteSpace=wrap;html=1;aspect=fixed;" vertex="1" parent="1">
          <mxGeometry x="-790" y="-720" width="80" height="80" as="geometry" />
        </mxCell>
        <mxCell id="qBSy8Zu0NFItvnrf-ppq-21" value="Exit" style="edgeStyle=orthogonalEdgeStyle;rounded=0;orthogonalLoop=1;jettySize=auto;html=1;entryX=0.5;entryY=1;entryDx=0;entryDy=0;" edge="1" parent="1" source="qBSy8Zu0NFItvnrf-ppq-25" target="qBSy8Zu0NFItvnrf-ppq-26">
          <mxGeometry relative="1" as="geometry" />
        </mxCell>
        <mxCell id="qBSy8Zu0NFItvnrf-ppq-22" style="edgeStyle=orthogonalEdgeStyle;rounded=0;orthogonalLoop=1;jettySize=auto;html=1;exitX=0;exitY=0;exitDx=0;exitDy=0;entryX=1;entryY=0;entryDx=0;entryDy=0;" edge="1" parent="1" source="qBSy8Zu0NFItvnrf-ppq-25" target="qBSy8Zu0NFItvnrf-ppq-17">
          <mxGeometry relative="1" as="geometry" />
        </mxCell>
        <mxCell id="qBSy8Zu0NFItvnrf-ppq-23" value="Interupt" style="edgeLabel;html=1;align=center;verticalAlign=middle;resizable=0;points=[];" vertex="1" connectable="0" parent="qBSy8Zu0NFItvnrf-ppq-22">
          <mxGeometry x="0.0659" y="-2" relative="1" as="geometry">
            <mxPoint as="offset" />
          </mxGeometry>
        </mxCell>
        <mxCell id="qBSy8Zu0NFItvnrf-ppq-24" value="I/O or event wait" style="edgeStyle=orthogonalEdgeStyle;rounded=0;orthogonalLoop=1;jettySize=auto;html=1;entryX=1;entryY=0.5;entryDx=0;entryDy=0;" edge="1" parent="1" source="qBSy8Zu0NFItvnrf-ppq-25" target="qBSy8Zu0NFItvnrf-ppq-20">
          <mxGeometry relative="1" as="geometry">
            <Array as="points">
              <mxPoint x="-590" y="-680" />
            </Array>
          </mxGeometry>
        </mxCell>
        <mxCell id="qBSy8Zu0NFItvnrf-ppq-25" value="RUNNING" style="ellipse;whiteSpace=wrap;html=1;aspect=fixed;" vertex="1" parent="1">
          <mxGeometry x="-630" y="-840" width="80" height="80" as="geometry" />
        </mxCell>
        <mxCell id="qBSy8Zu0NFItvnrf-ppq-26" value="TERMINATED" style="ellipse;whiteSpace=wrap;html=1;aspect=fixed;" vertex="1" parent="1">
          <mxGeometry x="-630" y="-1000" width="80" height="80" as="geometry" />
        </mxCell>
        <mxCell id="qBSy8Zu0NFItvnrf-ppq-27" value="Process (Context)" style="rounded=0;whiteSpace=wrap;html=1;gradientColor=#7ea6e0;fillColor=#dae8fc;strokeColor=#6c8ebf;labelPosition=center;verticalLabelPosition=top;align=center;verticalAlign=bottom;textDirection=ltr;arcSize=0;" vertex="1" parent="1">
          <mxGeometry x="-1030" y="-600" width="556" height="280" as="geometry" />
        </mxCell>
        <mxCell id="qBSy8Zu0NFItvnrf-ppq-28" value="Pid Mode&lt;br&gt;&lt;br&gt;&lt;br&gt;&lt;br&gt;&lt;br&gt;&lt;br&gt;&lt;br&gt;&lt;br&gt;Priority" style="rounded=1;whiteSpace=wrap;html=1;gradientColor=#ffd966;fillColor=#fff2cc;strokeColor=#d6b656;" vertex="1" parent="1">
          <mxGeometry x="-1000" y="-580" width="80" height="190" as="geometry" />
        </mxCell>
        <mxCell id="qBSy8Zu0NFItvnrf-ppq-29" value="Files" style="rounded=1;whiteSpace=wrap;html=1;gradientColor=#97d077;fillColor=#d5e8d4;strokeColor=#82b366;" vertex="1" parent="1">
          <mxGeometry x="-890" y="-580" width="90" height="60" as="geometry" />
        </mxCell>
        <mxCell id="qBSy8Zu0NFItvnrf-ppq-30" value="Files" style="rounded=1;whiteSpace=wrap;html=1;gradientColor=#97d077;fillColor=#d5e8d4;strokeColor=#82b366;" vertex="1" parent="1">
          <mxGeometry x="-880" y="-570" width="90" height="60" as="geometry" />
        </mxCell>
        <mxCell id="qBSy8Zu0NFItvnrf-ppq-31" value="Files" style="rounded=1;whiteSpace=wrap;html=1;gradientColor=#97d077;fillColor=#d5e8d4;strokeColor=#82b366;" vertex="1" parent="1">
          <mxGeometry x="-870" y="-560" width="90" height="60" as="geometry" />
        </mxCell>
        <mxCell id="qBSy8Zu0NFItvnrf-ppq-32" value="Data heap" style="rounded=1;whiteSpace=wrap;html=1;gradientColor=#ea6b66;fillColor=#f8cecc;strokeColor=#b85450;" vertex="1" parent="1">
          <mxGeometry x="-890" y="-480" width="90" height="60" as="geometry" />
        </mxCell>
        <mxCell id="qBSy8Zu0NFItvnrf-ppq-33" value="Code" style="rounded=1;whiteSpace=wrap;html=1;gradientColor=#d5739d;fillColor=#e6d0de;strokeColor=#996185;" vertex="1" parent="1">
          <mxGeometry x="-890" y="-400" width="90" height="60" as="geometry" />
        </mxCell>
        <mxCell id="qBSy8Zu0NFItvnrf-ppq-34" value="Main Thread" style="rounded=1;whiteSpace=wrap;html=1;gradientColor=#d5739d;fillColor=#E147E6;strokeColor=#996185;labelPosition=center;verticalLabelPosition=top;align=center;verticalAlign=bottom;" vertex="1" parent="1">
          <mxGeometry x="-744" y="-570" width="120" height="220" as="geometry" />
        </mxCell>
        <mxCell id="qBSy8Zu0NFItvnrf-ppq-35" value="Stack" style="rounded=1;whiteSpace=wrap;html=1;gradientColor=#7ea6e0;fillColor=#dae8fc;strokeColor=#6c8ebf;" vertex="1" parent="1">
          <mxGeometry x="-729" y="-540" width="90" height="60" as="geometry" />
        </mxCell>
        <mxCell id="qBSy8Zu0NFItvnrf-ppq-36" value="Instruction pointer" style="rounded=1;whiteSpace=wrap;html=1;gradientColor=#7ea6e0;fillColor=#dae8fc;strokeColor=#6c8ebf;" vertex="1" parent="1">
          <mxGeometry x="-729" y="-450" width="90" height="60" as="geometry" />
        </mxCell>
        <mxCell id="qBSy8Zu0NFItvnrf-ppq-37" value="Thread" style="rounded=1;whiteSpace=wrap;html=1;gradientColor=#d5739d;fillColor=#E147E6;strokeColor=#996185;labelPosition=center;verticalLabelPosition=top;align=center;verticalAlign=bottom;" vertex="1" parent="1">
          <mxGeometry x="-614" y="-570" width="120" height="220" as="geometry" />
        </mxCell>
        <mxCell id="qBSy8Zu0NFItvnrf-ppq-38" value="Stack" style="rounded=1;whiteSpace=wrap;html=1;gradientColor=#7ea6e0;fillColor=#dae8fc;strokeColor=#6c8ebf;" vertex="1" parent="1">
          <mxGeometry x="-599" y="-540" width="90" height="60" as="geometry" />
        </mxCell>
        <mxCell id="qBSy8Zu0NFItvnrf-ppq-39" value="Instruction pointer" style="rounded=1;whiteSpace=wrap;html=1;gradientColor=#7ea6e0;fillColor=#dae8fc;strokeColor=#6c8ebf;" vertex="1" parent="1">
          <mxGeometry x="-599" y="-450" width="90" height="60" as="geometry" />
        </mxCell>
        <mxCell id="qBSy8Zu0NFItvnrf-ppq-42" value="" style="rounded=0;orthogonalLoop=1;jettySize=auto;html=1;" edge="1" parent="1" source="qBSy8Zu0NFItvnrf-ppq-40" target="qBSy8Zu0NFItvnrf-ppq-41">
          <mxGeometry relative="1" as="geometry" />
        </mxCell>
        <mxCell id="qBSy8Zu0NFItvnrf-ppq-49" value="" style="edgeStyle=none;rounded=0;orthogonalLoop=1;jettySize=auto;html=1;" edge="1" parent="1" source="qBSy8Zu0NFItvnrf-ppq-40" target="qBSy8Zu0NFItvnrf-ppq-48">
          <mxGeometry relative="1" as="geometry" />
        </mxCell>
        <mxCell id="qBSy8Zu0NFItvnrf-ppq-61" value="" style="edgeStyle=none;rounded=0;orthogonalLoop=1;jettySize=auto;html=1;" edge="1" parent="1" source="qBSy8Zu0NFItvnrf-ppq-40" target="qBSy8Zu0NFItvnrf-ppq-60">
          <mxGeometry relative="1" as="geometry" />
        </mxCell>
        <mxCell id="qBSy8Zu0NFItvnrf-ppq-40" value="Process scheduling" style="rounded=1;whiteSpace=wrap;html=1;fillColor=#f8cecc;strokeColor=#b85450;gradientColor=#ea6b66;" vertex="1" parent="1">
          <mxGeometry x="-150" y="-690" width="120" height="60" as="geometry" />
        </mxCell>
        <mxCell id="qBSy8Zu0NFItvnrf-ppq-44" value="" style="edgeStyle=none;rounded=0;orthogonalLoop=1;jettySize=auto;html=1;" edge="1" parent="1" source="qBSy8Zu0NFItvnrf-ppq-41" target="qBSy8Zu0NFItvnrf-ppq-43">
          <mxGeometry relative="1" as="geometry" />
        </mxCell>
        <mxCell id="qBSy8Zu0NFItvnrf-ppq-47" style="edgeStyle=none;rounded=0;orthogonalLoop=1;jettySize=auto;html=1;exitX=0.75;exitY=1;exitDx=0;exitDy=0;" edge="1" parent="1" source="qBSy8Zu0NFItvnrf-ppq-41" target="qBSy8Zu0NFItvnrf-ppq-46">
          <mxGeometry relative="1" as="geometry" />
        </mxCell>
        <mxCell id="qBSy8Zu0NFItvnrf-ppq-41" value="Objectives" style="rounded=1;whiteSpace=wrap;html=1;fillColor=#e6d0de;strokeColor=#996185;gradientColor=#d5739d;" vertex="1" parent="1">
          <mxGeometry x="-150" y="-490" width="120" height="60" as="geometry" />
        </mxCell>
        <mxCell id="qBSy8Zu0NFItvnrf-ppq-43" value="Some processes running at all times, to maximize CPU utilization" style="rounded=1;whiteSpace=wrap;html=1;fillColor=#dae8fc;strokeColor=#6c8ebf;gradientColor=#7ea6e0;" vertex="1" parent="1">
          <mxGeometry x="-370" y="-290" width="250" height="60" as="geometry" />
        </mxCell>
        <mxCell id="qBSy8Zu0NFItvnrf-ppq-46" value="Switch the CPU bw processes so that users can interact with each program&amp;nbsp; while running" style="rounded=1;whiteSpace=wrap;html=1;fillColor=#dae8fc;strokeColor=#6c8ebf;gradientColor=#7ea6e0;" vertex="1" parent="1">
          <mxGeometry x="-40" y="-290" width="310" height="60" as="geometry" />
        </mxCell>
        <mxCell id="qBSy8Zu0NFItvnrf-ppq-48" value="Process states" style="rounded=1;whiteSpace=wrap;html=1;fillColor=#e6d0de;strokeColor=#996185;gradientColor=#d5739d;" vertex="1" parent="1">
          <mxGeometry x="-420" y="-690" width="120" height="60" as="geometry" />
        </mxCell>
        <mxCell id="qBSy8Zu0NFItvnrf-ppq-53" style="edgeStyle=none;rounded=0;orthogonalLoop=1;jettySize=auto;html=1;" edge="1" parent="1" source="qBSy8Zu0NFItvnrf-ppq-50" target="qBSy8Zu0NFItvnrf-ppq-52">
          <mxGeometry relative="1" as="geometry" />
        </mxCell>
        <mxCell id="qBSy8Zu0NFItvnrf-ppq-50" value="ready queue" style="rounded=0;whiteSpace=wrap;html=1;" vertex="1" parent="1">
          <mxGeometry x="-250" y="-940" width="120" height="60" as="geometry" />
        </mxCell>
        <mxCell id="qBSy8Zu0NFItvnrf-ppq-57" style="edgeStyle=none;rounded=0;orthogonalLoop=1;jettySize=auto;html=1;entryX=0;entryY=0.75;entryDx=0;entryDy=0;" edge="1" parent="1" source="qBSy8Zu0NFItvnrf-ppq-51" target="qBSy8Zu0NFItvnrf-ppq-50">
          <mxGeometry relative="1" as="geometry">
            <Array as="points">
              <mxPoint x="-370" y="-790" />
              <mxPoint x="-370" y="-895" />
            </Array>
          </mxGeometry>
        </mxCell>
        <mxCell id="qBSy8Zu0NFItvnrf-ppq-51" value="waiting queue" style="rounded=0;whiteSpace=wrap;html=1;" vertex="1" parent="1">
          <mxGeometry x="-140" y="-820" width="120" height="60" as="geometry" />
        </mxCell>
        <mxCell id="qBSy8Zu0NFItvnrf-ppq-55" value="" style="edgeStyle=none;rounded=0;orthogonalLoop=1;jettySize=auto;html=1;" edge="1" parent="1" source="qBSy8Zu0NFItvnrf-ppq-52" target="qBSy8Zu0NFItvnrf-ppq-54">
          <mxGeometry relative="1" as="geometry" />
        </mxCell>
        <mxCell id="qBSy8Zu0NFItvnrf-ppq-56" style="edgeStyle=none;rounded=0;orthogonalLoop=1;jettySize=auto;html=1;entryX=1;entryY=0.5;entryDx=0;entryDy=0;" edge="1" parent="1" source="qBSy8Zu0NFItvnrf-ppq-52" target="qBSy8Zu0NFItvnrf-ppq-51">
          <mxGeometry relative="1" as="geometry">
            <Array as="points">
              <mxPoint x="120" y="-790" />
            </Array>
          </mxGeometry>
        </mxCell>
        <mxCell id="qBSy8Zu0NFItvnrf-ppq-59" style="edgeStyle=none;rounded=0;orthogonalLoop=1;jettySize=auto;html=1;entryX=0;entryY=0.25;entryDx=0;entryDy=0;" edge="1" parent="1" source="qBSy8Zu0NFItvnrf-ppq-52" target="qBSy8Zu0NFItvnrf-ppq-50">
          <mxGeometry relative="1" as="geometry">
            <Array as="points">
              <mxPoint x="120" y="-1010" />
              <mxPoint x="-370" y="-1010" />
              <mxPoint x="-370" y="-925" />
            </Array>
          </mxGeometry>
        </mxCell>
        <mxCell id="qBSy8Zu0NFItvnrf-ppq-52" value="CPU" style="ellipse;whiteSpace=wrap;html=1;aspect=fixed;" vertex="1" parent="1">
          <mxGeometry x="80" y="-950" width="80" height="80" as="geometry" />
        </mxCell>
        <mxCell id="qBSy8Zu0NFItvnrf-ppq-54" value="end" style="ellipse;whiteSpace=wrap;html=1;aspect=fixed;" vertex="1" parent="1">
          <mxGeometry x="300" y="-935" width="50" height="50" as="geometry" />
        </mxCell>
        <mxCell id="qBSy8Zu0NFItvnrf-ppq-58" style="edgeStyle=none;rounded=0;orthogonalLoop=1;jettySize=auto;html=1;entryX=0;entryY=0.5;entryDx=0;entryDy=0;" edge="1" parent="1" target="qBSy8Zu0NFItvnrf-ppq-50">
          <mxGeometry relative="1" as="geometry">
            <mxPoint x="-430" y="-910" as="sourcePoint" />
            <mxPoint x="-308" y="-921" as="targetPoint" />
          </mxGeometry>
        </mxCell>
        <mxCell id="qBSy8Zu0NFItvnrf-ppq-63" value="" style="edgeStyle=none;rounded=0;orthogonalLoop=1;jettySize=auto;html=1;" edge="1" parent="1" source="qBSy8Zu0NFItvnrf-ppq-60" target="qBSy8Zu0NFItvnrf-ppq-62">
          <mxGeometry relative="1" as="geometry" />
        </mxCell>
        <mxCell id="qBSy8Zu0NFItvnrf-ppq-60" value="Algorithms" style="rounded=1;whiteSpace=wrap;html=1;fillColor=#e6d0de;strokeColor=#996185;gradientColor=#d5739d;" vertex="1" parent="1">
          <mxGeometry x="190" y="-690" width="120" height="60" as="geometry" />
        </mxCell>
        <mxCell id="qBSy8Zu0NFItvnrf-ppq-65" value="" style="edgeStyle=none;rounded=0;orthogonalLoop=1;jettySize=auto;html=1;" edge="1" parent="1" source="qBSy8Zu0NFItvnrf-ppq-62" target="qBSy8Zu0NFItvnrf-ppq-64">
          <mxGeometry relative="1" as="geometry" />
        </mxCell>
        <mxCell id="qBSy8Zu0NFItvnrf-ppq-67" value="" style="edgeStyle=none;rounded=0;orthogonalLoop=1;jettySize=auto;html=1;" edge="1" parent="1" source="qBSy8Zu0NFItvnrf-ppq-62" target="qBSy8Zu0NFItvnrf-ppq-66">
          <mxGeometry relative="1" as="geometry" />
        </mxCell>
        <mxCell id="qBSy8Zu0NFItvnrf-ppq-71" value="Each process gets small unit of CPU" style="edgeStyle=none;rounded=0;orthogonalLoop=1;jettySize=auto;html=1;" edge="1" parent="1" source="qBSy8Zu0NFItvnrf-ppq-62" target="qBSy8Zu0NFItvnrf-ppq-70">
          <mxGeometry relative="1" as="geometry" />
        </mxCell>
        <mxCell id="qBSy8Zu0NFItvnrf-ppq-62" value="First come, first serve&lt;br&gt;FIFO" style="rounded=1;whiteSpace=wrap;html=1;fillColor=#dae8fc;strokeColor=#6c8ebf;gradientColor=#7ea6e0;" vertex="1" parent="1">
          <mxGeometry x="440" y="-870" width="120" height="60" as="geometry" />
        </mxCell>
        <mxCell id="qBSy8Zu0NFItvnrf-ppq-64" value="Keep CPU until thread blocks" style="rounded=0;whiteSpace=wrap;html=1;" vertex="1" parent="1">
          <mxGeometry x="640" y="-870" width="120" height="60" as="geometry" />
        </mxCell>
        <mxCell id="qBSy8Zu0NFItvnrf-ppq-83" value="" style="edgeStyle=none;rounded=0;orthogonalLoop=1;jettySize=auto;html=1;" edge="1" parent="1" source="qBSy8Zu0NFItvnrf-ppq-66" target="qBSy8Zu0NFItvnrf-ppq-82">
          <mxGeometry relative="1" as="geometry" />
        </mxCell>
        <mxCell id="qBSy8Zu0NFItvnrf-ppq-84" style="edgeStyle=none;rounded=0;orthogonalLoop=1;jettySize=auto;html=1;exitX=1;exitY=0.5;exitDx=0;exitDy=0;entryX=0;entryY=0.5;entryDx=0;entryDy=0;" edge="1" parent="1" source="qBSy8Zu0NFItvnrf-ppq-66" target="qBSy8Zu0NFItvnrf-ppq-68">
          <mxGeometry relative="1" as="geometry" />
        </mxCell>
        <mxCell id="qBSy8Zu0NFItvnrf-ppq-66" value="Ad/dis" style="rounded=1;whiteSpace=wrap;html=1;fillColor=#dae8fc;strokeColor=#6c8ebf;gradientColor=#7ea6e0;" vertex="1" parent="1">
          <mxGeometry x="660" y="-1000" width="120" height="60" as="geometry" />
        </mxCell>
        <mxCell id="qBSy8Zu0NFItvnrf-ppq-68" value="Short jobs get stuck behind long ones" style="rounded=1;whiteSpace=wrap;html=1;fillColor=#f8cecc;strokeColor=#b85450;" vertex="1" parent="1">
          <mxGeometry x="860" y="-1110" width="120" height="60" as="geometry" />
        </mxCell>
        <mxCell id="qBSy8Zu0NFItvnrf-ppq-75" value="" style="edgeStyle=none;rounded=0;orthogonalLoop=1;jettySize=auto;html=1;" edge="1" parent="1" source="qBSy8Zu0NFItvnrf-ppq-70" target="qBSy8Zu0NFItvnrf-ppq-74">
          <mxGeometry relative="1" as="geometry" />
        </mxCell>
        <mxCell id="qBSy8Zu0NFItvnrf-ppq-77" style="edgeStyle=none;rounded=0;orthogonalLoop=1;jettySize=auto;html=1;exitX=1;exitY=0.5;exitDx=0;exitDy=0;entryX=0;entryY=0.5;entryDx=0;entryDy=0;" edge="1" parent="1" source="qBSy8Zu0NFItvnrf-ppq-70" target="qBSy8Zu0NFItvnrf-ppq-76">
          <mxGeometry relative="1" as="geometry" />
        </mxCell>
        <mxCell id="qBSy8Zu0NFItvnrf-ppq-81" value="" style="edgeStyle=none;rounded=0;orthogonalLoop=1;jettySize=auto;html=1;exitX=1;exitY=0.5;exitDx=0;exitDy=0;" edge="1" parent="1" source="qBSy8Zu0NFItvnrf-ppq-70" target="qBSy8Zu0NFItvnrf-ppq-80">
          <mxGeometry relative="1" as="geometry" />
        </mxCell>
        <mxCell id="qBSy8Zu0NFItvnrf-ppq-92" value="what if we know the future, the length of jobs" style="edgeStyle=none;rounded=0;orthogonalLoop=1;jettySize=auto;html=1;" edge="1" parent="1" source="qBSy8Zu0NFItvnrf-ppq-70" target="qBSy8Zu0NFItvnrf-ppq-91">
          <mxGeometry relative="1" as="geometry" />
        </mxCell>
        <mxCell id="qBSy8Zu0NFItvnrf-ppq-70" value="Round robin" style="rounded=1;whiteSpace=wrap;html=1;fillColor=#dae8fc;strokeColor=#6c8ebf;gradientColor=#7ea6e0;" vertex="1" parent="1">
          <mxGeometry x="440" y="-660" width="120" height="60" as="geometry" />
        </mxCell>
        <mxCell id="qBSy8Zu0NFItvnrf-ppq-74" value="q large -&amp;gt; FIFO" style="rounded=0;whiteSpace=wrap;html=1;" vertex="1" parent="1">
          <mxGeometry x="640" y="-660" width="120" height="60" as="geometry" />
        </mxCell>
        <mxCell id="qBSy8Zu0NFItvnrf-ppq-79" value="" style="edgeStyle=none;rounded=0;orthogonalLoop=1;jettySize=auto;html=1;" edge="1" parent="1" source="qBSy8Zu0NFItvnrf-ppq-76" target="qBSy8Zu0NFItvnrf-ppq-78">
          <mxGeometry relative="1" as="geometry" />
        </mxCell>
        <mxCell id="qBSy8Zu0NFItvnrf-ppq-76" value="q small -&amp;gt; interleaved" style="rounded=0;whiteSpace=wrap;html=1;" vertex="1" parent="1">
          <mxGeometry x="640" y="-570" width="120" height="60" as="geometry" />
        </mxCell>
        <mxCell id="qBSy8Zu0NFItvnrf-ppq-78" value="if q too small, we will get alot of context switch" style="rounded=0;whiteSpace=wrap;html=1;" vertex="1" parent="1">
          <mxGeometry x="840" y="-570" width="120" height="60" as="geometry" />
        </mxCell>
        <mxCell id="qBSy8Zu0NFItvnrf-ppq-86" value="" style="edgeStyle=none;rounded=0;orthogonalLoop=1;jettySize=auto;html=1;" edge="1" parent="1" source="qBSy8Zu0NFItvnrf-ppq-80" target="qBSy8Zu0NFItvnrf-ppq-85">
          <mxGeometry relative="1" as="geometry" />
        </mxCell>
        <mxCell id="qBSy8Zu0NFItvnrf-ppq-88" style="edgeStyle=none;rounded=0;orthogonalLoop=1;jettySize=auto;html=1;exitX=1;exitY=0.5;exitDx=0;exitDy=0;entryX=0;entryY=0.5;entryDx=0;entryDy=0;" edge="1" parent="1" source="qBSy8Zu0NFItvnrf-ppq-80" target="qBSy8Zu0NFItvnrf-ppq-87">
          <mxGeometry relative="1" as="geometry" />
        </mxCell>
        <mxCell id="qBSy8Zu0NFItvnrf-ppq-80" value="Ad/dis" style="rounded=1;whiteSpace=wrap;html=1;fillColor=#dae8fc;strokeColor=#6c8ebf;gradientColor=#7ea6e0;" vertex="1" parent="1">
          <mxGeometry x="640" y="-420" width="120" height="60" as="geometry" />
        </mxCell>
        <mxCell id="qBSy8Zu0NFItvnrf-ppq-82" value="Simple" style="rounded=1;whiteSpace=wrap;html=1;fillColor=#d5e8d4;strokeColor=#82b366;" vertex="1" parent="1">
          <mxGeometry x="860" y="-1000" width="120" height="60" as="geometry" />
        </mxCell>
        <mxCell id="qBSy8Zu0NFItvnrf-ppq-90" value="" style="edgeStyle=none;rounded=0;orthogonalLoop=1;jettySize=auto;html=1;" edge="1" parent="1" source="qBSy8Zu0NFItvnrf-ppq-85" target="qBSy8Zu0NFItvnrf-ppq-89">
          <mxGeometry relative="1" as="geometry" />
        </mxCell>
        <mxCell id="qBSy8Zu0NFItvnrf-ppq-85" value="longer completion time" style="rounded=1;whiteSpace=wrap;html=1;fillColor=#f8cecc;strokeColor=#b85450;" vertex="1" parent="1">
          <mxGeometry x="880" y="-420" width="120" height="60" as="geometry" />
        </mxCell>
        <mxCell id="qBSy8Zu0NFItvnrf-ppq-87" value="cache state must be shared" style="rounded=1;whiteSpace=wrap;html=1;fillColor=#f8cecc;strokeColor=#b85450;" vertex="1" parent="1">
          <mxGeometry x="880" y="-320" width="120" height="60" as="geometry" />
        </mxCell>
        <mxCell id="qBSy8Zu0NFItvnrf-ppq-89" value="for jobs with same length" style="rounded=1;whiteSpace=wrap;html=1;fillColor=#f8cecc;strokeColor=#b85450;" vertex="1" parent="1">
          <mxGeometry x="1080" y="-420" width="120" height="60" as="geometry" />
        </mxCell>
        <mxCell id="qBSy8Zu0NFItvnrf-ppq-94" value="" style="edgeStyle=none;rounded=0;orthogonalLoop=1;jettySize=auto;html=1;" edge="1" parent="1" source="qBSy8Zu0NFItvnrf-ppq-91" target="qBSy8Zu0NFItvnrf-ppq-93">
          <mxGeometry relative="1" as="geometry" />
        </mxCell>
        <mxCell id="qBSy8Zu0NFItvnrf-ppq-96" style="edgeStyle=none;rounded=0;orthogonalLoop=1;jettySize=auto;html=1;exitX=1;exitY=0.5;exitDx=0;exitDy=0;entryX=0;entryY=0.5;entryDx=0;entryDy=0;" edge="1" parent="1" source="qBSy8Zu0NFItvnrf-ppq-91" target="qBSy8Zu0NFItvnrf-ppq-95">
          <mxGeometry relative="1" as="geometry" />
        </mxCell>
        <mxCell id="qBSy8Zu0NFItvnrf-ppq-115" style="edgeStyle=none;rounded=0;orthogonalLoop=1;jettySize=auto;html=1;exitX=1;exitY=0.5;exitDx=0;exitDy=0;entryX=0;entryY=0.5;entryDx=0;entryDy=0;" edge="1" parent="1" source="qBSy8Zu0NFItvnrf-ppq-91" target="qBSy8Zu0NFItvnrf-ppq-110">
          <mxGeometry relative="1" as="geometry" />
        </mxCell>
        <mxCell id="qBSy8Zu0NFItvnrf-ppq-119" value="" style="edgeStyle=none;rounded=0;orthogonalLoop=1;jettySize=auto;html=1;" edge="1" parent="1" source="qBSy8Zu0NFItvnrf-ppq-91" target="qBSy8Zu0NFItvnrf-ppq-118">
          <mxGeometry relative="1" as="geometry" />
        </mxCell>
        <mxCell id="qBSy8Zu0NFItvnrf-ppq-120" value="changing policy based on past behavior" style="edgeLabel;html=1;align=center;verticalAlign=middle;resizable=0;points=[];" vertex="1" connectable="0" parent="qBSy8Zu0NFItvnrf-ppq-119">
          <mxGeometry x="-0.0558" y="-1" relative="1" as="geometry">
            <mxPoint as="offset" />
          </mxGeometry>
        </mxCell>
        <mxCell id="qBSy8Zu0NFItvnrf-ppq-91" value="We can schedule shortest job first" style="rounded=1;whiteSpace=wrap;html=1;fillColor=#dae8fc;strokeColor=#6c8ebf;gradientColor=#7ea6e0;" vertex="1" parent="1">
          <mxGeometry x="440" y="-130" width="120" height="60" as="geometry" />
        </mxCell>
        <mxCell id="qBSy8Zu0NFItvnrf-ppq-101" value="" style="edgeStyle=none;rounded=0;orthogonalLoop=1;jettySize=auto;html=1;" edge="1" parent="1" source="qBSy8Zu0NFItvnrf-ppq-93" target="qBSy8Zu0NFItvnrf-ppq-100">
          <mxGeometry relative="1" as="geometry" />
        </mxCell>
        <mxCell id="qBSy8Zu0NFItvnrf-ppq-104" style="edgeStyle=none;rounded=0;orthogonalLoop=1;jettySize=auto;html=1;exitX=1;exitY=0.5;exitDx=0;exitDy=0;entryX=0;entryY=0.5;entryDx=0;entryDy=0;" edge="1" parent="1" source="qBSy8Zu0NFItvnrf-ppq-93" target="qBSy8Zu0NFItvnrf-ppq-103">
          <mxGeometry relative="1" as="geometry" />
        </mxCell>
        <mxCell id="qBSy8Zu0NFItvnrf-ppq-93" value="Shortest job first" style="rounded=1;whiteSpace=wrap;html=1;fillColor=#dae8fc;strokeColor=#6c8ebf;gradientColor=#7ea6e0;" vertex="1" parent="1">
          <mxGeometry x="720" y="-130" width="120" height="60" as="geometry" />
        </mxCell>
        <mxCell id="qBSy8Zu0NFItvnrf-ppq-102" style="edgeStyle=none;rounded=0;orthogonalLoop=1;jettySize=auto;html=1;entryX=0;entryY=0.5;entryDx=0;entryDy=0;" edge="1" parent="1" source="qBSy8Zu0NFItvnrf-ppq-95" target="qBSy8Zu0NFItvnrf-ppq-100">
          <mxGeometry relative="1" as="geometry" />
        </mxCell>
        <mxCell id="qBSy8Zu0NFItvnrf-ppq-105" style="edgeStyle=none;rounded=0;orthogonalLoop=1;jettySize=auto;html=1;exitX=1;exitY=0.5;exitDx=0;exitDy=0;" edge="1" parent="1" source="qBSy8Zu0NFItvnrf-ppq-95" target="qBSy8Zu0NFItvnrf-ppq-103">
          <mxGeometry relative="1" as="geometry" />
        </mxCell>
        <mxCell id="qBSy8Zu0NFItvnrf-ppq-95" value="Shortest remaining time first" style="rounded=1;whiteSpace=wrap;html=1;fillColor=#dae8fc;strokeColor=#6c8ebf;gradientColor=#7ea6e0;" vertex="1" parent="1">
          <mxGeometry x="720" y="-30" width="120" height="60" as="geometry" />
        </mxCell>
        <mxCell id="qBSy8Zu0NFItvnrf-ppq-100" value="Jobs with same length -&amp;gt; FCFS" style="rounded=0;whiteSpace=wrap;html=1;" vertex="1" parent="1">
          <mxGeometry x="920" y="10" width="120" height="60" as="geometry" />
        </mxCell>
        <mxCell id="qBSy8Zu0NFItvnrf-ppq-107" value="" style="edgeStyle=none;rounded=0;orthogonalLoop=1;jettySize=auto;html=1;" edge="1" parent="1" source="qBSy8Zu0NFItvnrf-ppq-103" target="qBSy8Zu0NFItvnrf-ppq-106">
          <mxGeometry relative="1" as="geometry" />
        </mxCell>
        <mxCell id="qBSy8Zu0NFItvnrf-ppq-103" value="Varying length" style="rounded=0;whiteSpace=wrap;html=1;" vertex="1" parent="1">
          <mxGeometry x="910" y="-180" width="120" height="60" as="geometry" />
        </mxCell>
        <mxCell id="qBSy8Zu0NFItvnrf-ppq-106" value="Short job not get stuck behind long ones" style="rounded=0;whiteSpace=wrap;html=1;" vertex="1" parent="1">
          <mxGeometry x="1110" y="-180" width="120" height="60" as="geometry" />
        </mxCell>
        <mxCell id="qBSy8Zu0NFItvnrf-ppq-112" value="" style="edgeStyle=none;rounded=0;orthogonalLoop=1;jettySize=auto;html=1;" edge="1" parent="1" source="qBSy8Zu0NFItvnrf-ppq-110" target="qBSy8Zu0NFItvnrf-ppq-111">
          <mxGeometry relative="1" as="geometry" />
        </mxCell>
        <mxCell id="qBSy8Zu0NFItvnrf-ppq-114" value="" style="edgeStyle=none;rounded=0;orthogonalLoop=1;jettySize=auto;html=1;" edge="1" parent="1" source="qBSy8Zu0NFItvnrf-ppq-110" target="qBSy8Zu0NFItvnrf-ppq-113">
          <mxGeometry relative="1" as="geometry" />
        </mxCell>
        <mxCell id="qBSy8Zu0NFItvnrf-ppq-117" style="edgeStyle=none;rounded=0;orthogonalLoop=1;jettySize=auto;html=1;exitX=0.75;exitY=1;exitDx=0;exitDy=0;entryX=0;entryY=0.5;entryDx=0;entryDy=0;" edge="1" parent="1" source="qBSy8Zu0NFItvnrf-ppq-110" target="qBSy8Zu0NFItvnrf-ppq-116">
          <mxGeometry relative="1" as="geometry" />
        </mxCell>
        <mxCell id="qBSy8Zu0NFItvnrf-ppq-110" value="Dis" style="rounded=1;whiteSpace=wrap;html=1;fillColor=#dae8fc;strokeColor=#6c8ebf;gradientColor=#7ea6e0;" vertex="1" parent="1">
          <mxGeometry x="720" y="100" width="120" height="60" as="geometry" />
        </mxCell>
        <mxCell id="qBSy8Zu0NFItvnrf-ppq-111" value="Can get starvation if alot of small jobs" style="rounded=1;whiteSpace=wrap;html=1;fillColor=#f8cecc;strokeColor=#b85450;" vertex="1" parent="1">
          <mxGeometry x="920" y="100" width="120" height="60" as="geometry" />
        </mxCell>
        <mxCell id="qBSy8Zu0NFItvnrf-ppq-113" value="Long jobs never get run" style="rounded=1;whiteSpace=wrap;html=1;fillColor=#f8cecc;strokeColor=#b85450;" vertex="1" parent="1">
          <mxGeometry x="920" y="200" width="120" height="60" as="geometry" />
        </mxCell>
        <mxCell id="qBSy8Zu0NFItvnrf-ppq-116" value="How can u predict the future?" style="rounded=1;whiteSpace=wrap;html=1;fillColor=#f8cecc;strokeColor=#b85450;" vertex="1" parent="1">
          <mxGeometry x="920" y="290" width="120" height="60" as="geometry" />
        </mxCell>
        <mxCell id="qBSy8Zu0NFItvnrf-ppq-129" value="" style="edgeStyle=none;rounded=0;orthogonalLoop=1;jettySize=auto;html=1;" edge="1" parent="1" source="qBSy8Zu0NFItvnrf-ppq-118" target="qBSy8Zu0NFItvnrf-ppq-128">
          <mxGeometry relative="1" as="geometry" />
        </mxCell>
        <mxCell id="qBSy8Zu0NFItvnrf-ppq-135" value="" style="edgeStyle=none;rounded=0;orthogonalLoop=1;jettySize=auto;html=1;" edge="1" parent="1" source="qBSy8Zu0NFItvnrf-ppq-118" target="qBSy8Zu0NFItvnrf-ppq-134">
          <mxGeometry relative="1" as="geometry" />
        </mxCell>
        <mxCell id="qBSy8Zu0NFItvnrf-ppq-144" value="" style="edgeStyle=none;rounded=0;orthogonalLoop=1;jettySize=auto;html=1;" edge="1" parent="1" source="qBSy8Zu0NFItvnrf-ppq-118" target="qBSy8Zu0NFItvnrf-ppq-143">
          <mxGeometry relative="1" as="geometry" />
        </mxCell>
        <mxCell id="qBSy8Zu0NFItvnrf-ppq-118" value="multi level feedback&amp;nbsp;" style="rounded=1;whiteSpace=wrap;html=1;fillColor=#dae8fc;strokeColor=#6c8ebf;gradientColor=#7ea6e0;" vertex="1" parent="1">
          <mxGeometry x="440" y="450" width="120" height="60" as="geometry" />
        </mxCell>
        <mxCell id="qBSy8Zu0NFItvnrf-ppq-125" style="edgeStyle=none;rounded=0;orthogonalLoop=1;jettySize=auto;html=1;exitX=1;exitY=0.5;exitDx=0;exitDy=0;entryX=1;entryY=0.5;entryDx=0;entryDy=0;" edge="1" parent="1" source="qBSy8Zu0NFItvnrf-ppq-121" target="qBSy8Zu0NFItvnrf-ppq-122">
          <mxGeometry relative="1" as="geometry">
            <Array as="points">
              <mxPoint x="1556" y="500" />
              <mxPoint x="1556" y="620" />
            </Array>
          </mxGeometry>
        </mxCell>
        <mxCell id="qBSy8Zu0NFItvnrf-ppq-131" value="" style="edgeStyle=none;rounded=0;orthogonalLoop=1;jettySize=auto;html=1;" edge="1" parent="1" source="qBSy8Zu0NFItvnrf-ppq-121" target="qBSy8Zu0NFItvnrf-ppq-130">
          <mxGeometry relative="1" as="geometry" />
        </mxCell>
        <mxCell id="qBSy8Zu0NFItvnrf-ppq-121" value="quantum = 8" style="shape=process;whiteSpace=wrap;html=1;backgroundOutline=1;rounded=0;" vertex="1" parent="1">
          <mxGeometry x="1066" y="470" width="370" height="60" as="geometry" />
        </mxCell>
        <mxCell id="qBSy8Zu0NFItvnrf-ppq-126" style="edgeStyle=none;rounded=0;orthogonalLoop=1;jettySize=auto;html=1;exitX=0;exitY=0.5;exitDx=0;exitDy=0;entryX=0;entryY=0.5;entryDx=0;entryDy=0;" edge="1" parent="1" source="qBSy8Zu0NFItvnrf-ppq-122" target="qBSy8Zu0NFItvnrf-ppq-123">
          <mxGeometry relative="1" as="geometry">
            <Array as="points">
              <mxPoint x="926" y="620" />
              <mxPoint x="926" y="760" />
            </Array>
          </mxGeometry>
        </mxCell>
        <mxCell id="qBSy8Zu0NFItvnrf-ppq-122" value="quantum = 16" style="shape=process;whiteSpace=wrap;html=1;backgroundOutline=1;rounded=0;" vertex="1" parent="1">
          <mxGeometry x="1066" y="590" width="370" height="60" as="geometry" />
        </mxCell>
        <mxCell id="qBSy8Zu0NFItvnrf-ppq-127" style="edgeStyle=none;rounded=0;orthogonalLoop=1;jettySize=auto;html=1;exitX=1;exitY=0.5;exitDx=0;exitDy=0;" edge="1" parent="1" source="qBSy8Zu0NFItvnrf-ppq-123">
          <mxGeometry relative="1" as="geometry">
            <mxPoint x="1546" y="760" as="targetPoint" />
          </mxGeometry>
        </mxCell>
        <mxCell id="qBSy8Zu0NFItvnrf-ppq-133" value="" style="edgeStyle=none;rounded=0;orthogonalLoop=1;jettySize=auto;html=1;" edge="1" parent="1" source="qBSy8Zu0NFItvnrf-ppq-123" target="qBSy8Zu0NFItvnrf-ppq-132">
          <mxGeometry relative="1" as="geometry" />
        </mxCell>
        <mxCell id="qBSy8Zu0NFItvnrf-ppq-123" value="FCFS" style="shape=process;whiteSpace=wrap;html=1;backgroundOutline=1;rounded=0;" vertex="1" parent="1">
          <mxGeometry x="1066" y="730" width="370" height="60" as="geometry" />
        </mxCell>
        <mxCell id="qBSy8Zu0NFItvnrf-ppq-124" value="" style="endArrow=classic;html=1;rounded=0;entryX=0;entryY=0.5;entryDx=0;entryDy=0;" edge="1" parent="1" target="qBSy8Zu0NFItvnrf-ppq-121">
          <mxGeometry width="50" height="50" relative="1" as="geometry">
            <mxPoint x="926" y="500" as="sourcePoint" />
            <mxPoint x="876" y="550" as="targetPoint" />
          </mxGeometry>
        </mxCell>
        <mxCell id="qBSy8Zu0NFItvnrf-ppq-128" value="each queue have different priority" style="rounded=1;whiteSpace=wrap;html=1;" vertex="1" parent="1">
          <mxGeometry x="640" y="390" width="120" height="60" as="geometry" />
        </mxCell>
        <mxCell id="qBSy8Zu0NFItvnrf-ppq-130" value="foreground task" style="whiteSpace=wrap;html=1;rounded=0;" vertex="1" parent="1">
          <mxGeometry x="1191" y="380" width="120" height="60" as="geometry" />
        </mxCell>
        <mxCell id="qBSy8Zu0NFItvnrf-ppq-132" value="background task" style="whiteSpace=wrap;html=1;rounded=0;" vertex="1" parent="1">
          <mxGeometry x="1191" y="870" width="120" height="60" as="geometry" />
        </mxCell>
        <mxCell id="qBSy8Zu0NFItvnrf-ppq-137" value="" style="edgeStyle=none;rounded=0;orthogonalLoop=1;jettySize=auto;html=1;" edge="1" parent="1" source="qBSy8Zu0NFItvnrf-ppq-134" target="qBSy8Zu0NFItvnrf-ppq-136">
          <mxGeometry relative="1" as="geometry" />
        </mxCell>
        <mxCell id="qBSy8Zu0NFItvnrf-ppq-134" value="adjust job&#39;s prority" style="rounded=1;whiteSpace=wrap;html=1;fillColor=#dae8fc;strokeColor=#6c8ebf;gradientColor=#7ea6e0;" vertex="1" parent="1">
          <mxGeometry x="640" y="540" width="120" height="60" as="geometry" />
        </mxCell>
        <mxCell id="qBSy8Zu0NFItvnrf-ppq-140" value="" style="edgeStyle=none;rounded=0;orthogonalLoop=1;jettySize=auto;html=1;" edge="1" parent="1" source="qBSy8Zu0NFItvnrf-ppq-136" target="qBSy8Zu0NFItvnrf-ppq-139">
          <mxGeometry relative="1" as="geometry" />
        </mxCell>
        <mxCell id="qBSy8Zu0NFItvnrf-ppq-136" value="job start at highest priority" style="rounded=1;whiteSpace=wrap;html=1;fillColor=#dae8fc;strokeColor=#6c8ebf;gradientColor=#7ea6e0;" vertex="1" parent="1">
          <mxGeometry x="640" y="680" width="120" height="60" as="geometry" />
        </mxCell>
        <mxCell id="qBSy8Zu0NFItvnrf-ppq-142" value="" style="edgeStyle=none;rounded=0;orthogonalLoop=1;jettySize=auto;html=1;" edge="1" parent="1" source="qBSy8Zu0NFItvnrf-ppq-139" target="qBSy8Zu0NFItvnrf-ppq-141">
          <mxGeometry relative="1" as="geometry" />
        </mxCell>
        <mxCell id="qBSy8Zu0NFItvnrf-ppq-139" value="if timeout expires, drop one level" style="rounded=1;whiteSpace=wrap;html=1;fillColor=#dae8fc;strokeColor=#6c8ebf;gradientColor=#7ea6e0;" vertex="1" parent="1">
          <mxGeometry x="640" y="820" width="120" height="60" as="geometry" />
        </mxCell>
        <mxCell id="qBSy8Zu0NFItvnrf-ppq-141" value="if not, push one level(or top)" style="rounded=1;whiteSpace=wrap;html=1;fillColor=#dae8fc;strokeColor=#6c8ebf;gradientColor=#7ea6e0;" vertex="1" parent="1">
          <mxGeometry x="640" y="960" width="120" height="60" as="geometry" />
        </mxCell>
        <mxCell id="qBSy8Zu0NFItvnrf-ppq-146" value="" style="edgeStyle=none;rounded=0;orthogonalLoop=1;jettySize=auto;html=1;" edge="1" parent="1" source="qBSy8Zu0NFItvnrf-ppq-143" target="qBSy8Zu0NFItvnrf-ppq-145">
          <mxGeometry relative="1" as="geometry" />
        </mxCell>
        <mxCell id="qBSy8Zu0NFItvnrf-ppq-149" style="edgeStyle=none;rounded=0;orthogonalLoop=1;jettySize=auto;html=1;exitX=1;exitY=0.5;exitDx=0;exitDy=0;entryX=0;entryY=0.5;entryDx=0;entryDy=0;" edge="1" parent="1" source="qBSy8Zu0NFItvnrf-ppq-143" target="qBSy8Zu0NFItvnrf-ppq-148">
          <mxGeometry relative="1" as="geometry" />
        </mxCell>
        <mxCell id="qBSy8Zu0NFItvnrf-ppq-143" value="multi level feedback&amp;nbsp;" style="rounded=1;whiteSpace=wrap;html=1;fillColor=#dae8fc;strokeColor=#6c8ebf;gradientColor=#7ea6e0;" vertex="1" parent="1">
          <mxGeometry x="640" y="1090" width="120" height="60" as="geometry" />
        </mxCell>
        <mxCell id="qBSy8Zu0NFItvnrf-ppq-145" value="CPU bound jobs drop like a rock" style="rounded=0;whiteSpace=wrap;html=1;" vertex="1" parent="1">
          <mxGeometry x="980" y="1090" width="120" height="60" as="geometry" />
        </mxCell>
        <mxCell id="qBSy8Zu0NFItvnrf-ppq-148" value="IO bound jobs stay on top" style="rounded=0;whiteSpace=wrap;html=1;" vertex="1" parent="1">
          <mxGeometry x="980" y="1180" width="120" height="60" as="geometry" />
        </mxCell>
        <mxCell id="qBSy8Zu0NFItvnrf-ppq-152" value="" style="edgeStyle=none;rounded=0;orthogonalLoop=1;jettySize=auto;html=1;" edge="1" parent="1" source="qBSy8Zu0NFItvnrf-ppq-150" target="qBSy8Zu0NFItvnrf-ppq-151">
          <mxGeometry relative="1" as="geometry" />
        </mxCell>
        <mxCell id="qBSy8Zu0NFItvnrf-ppq-155" style="edgeStyle=none;rounded=0;orthogonalLoop=1;jettySize=auto;html=1;exitX=1;exitY=0.5;exitDx=0;exitDy=0;entryX=0;entryY=0.5;entryDx=0;entryDy=0;" edge="1" parent="1" source="qBSy8Zu0NFItvnrf-ppq-150" target="qBSy8Zu0NFItvnrf-ppq-154">
          <mxGeometry relative="1" as="geometry" />
        </mxCell>
        <mxCell id="qBSy8Zu0NFItvnrf-ppq-150" value="scheduling bw the queue" style="rounded=1;whiteSpace=wrap;html=1;fillColor=#dae8fc;strokeColor=#6c8ebf;gradientColor=#7ea6e0;" vertex="1" parent="1">
          <mxGeometry x="1420" y="860" width="120" height="60" as="geometry" />
        </mxCell>
        <mxCell id="qBSy8Zu0NFItvnrf-ppq-151" value="Fixed priority -&amp;gt; highest first" style="rounded=1;whiteSpace=wrap;html=1;" vertex="1" parent="1">
          <mxGeometry x="1670" y="860" width="120" height="60" as="geometry" />
        </mxCell>
        <mxCell id="qBSy8Zu0NFItvnrf-ppq-154" value="Each one will have timeslice of CPU" style="rounded=1;whiteSpace=wrap;html=1;" vertex="1" parent="1">
          <mxGeometry x="1670" y="970" width="120" height="60" as="geometry" />
        </mxCell>
        <mxCell id="qBSy8Zu0NFItvnrf-ppq-158" value="" style="edgeStyle=none;rounded=0;orthogonalLoop=1;jettySize=auto;html=1;" edge="1" parent="1" source="qBSy8Zu0NFItvnrf-ppq-156" target="qBSy8Zu0NFItvnrf-ppq-157">
          <mxGeometry relative="1" as="geometry" />
        </mxCell>
        <mxCell id="qBSy8Zu0NFItvnrf-ppq-164" value="" style="edgeStyle=none;rounded=0;orthogonalLoop=1;jettySize=auto;html=1;" edge="1" parent="1" source="qBSy8Zu0NFItvnrf-ppq-156" target="qBSy8Zu0NFItvnrf-ppq-163">
          <mxGeometry relative="1" as="geometry" />
        </mxCell>
        <mxCell id="qBSy8Zu0NFItvnrf-ppq-156" value="Lottery Scheduling" style="rounded=1;whiteSpace=wrap;html=1;fillColor=#dae8fc;strokeColor=#6c8ebf;gradientColor=#7ea6e0;" vertex="1" parent="1">
          <mxGeometry x="400" y="1290" width="120" height="60" as="geometry" />
        </mxCell>
        <mxCell id="qBSy8Zu0NFItvnrf-ppq-160" value="" style="edgeStyle=none;rounded=0;orthogonalLoop=1;jettySize=auto;html=1;" edge="1" parent="1" source="qBSy8Zu0NFItvnrf-ppq-157" target="qBSy8Zu0NFItvnrf-ppq-159">
          <mxGeometry relative="1" as="geometry" />
        </mxCell>
        <mxCell id="qBSy8Zu0NFItvnrf-ppq-157" value="Give each jobs number of ticket" style="rounded=1;whiteSpace=wrap;html=1;" vertex="1" parent="1">
          <mxGeometry x="680" y="1290" width="120" height="60" as="geometry" />
        </mxCell>
        <mxCell id="qBSy8Zu0NFItvnrf-ppq-159" value="On each time slice, randomly pick one winning ticket" style="rounded=1;whiteSpace=wrap;html=1;" vertex="1" parent="1">
          <mxGeometry x="680" y="1430" width="120" height="60" as="geometry" />
        </mxCell>
        <mxCell id="qBSy8Zu0NFItvnrf-ppq-166" value="" style="edgeStyle=none;rounded=0;orthogonalLoop=1;jettySize=auto;html=1;" edge="1" parent="1" source="qBSy8Zu0NFItvnrf-ppq-163" target="qBSy8Zu0NFItvnrf-ppq-165">
          <mxGeometry relative="1" as="geometry" />
        </mxCell>
        <mxCell id="qBSy8Zu0NFItvnrf-ppq-169" style="edgeStyle=none;rounded=0;orthogonalLoop=1;jettySize=auto;html=1;exitX=1;exitY=0.5;exitDx=0;exitDy=0;entryX=0;entryY=0.5;entryDx=0;entryDy=0;" edge="1" parent="1" source="qBSy8Zu0NFItvnrf-ppq-163" target="qBSy8Zu0NFItvnrf-ppq-168">
          <mxGeometry relative="1" as="geometry" />
        </mxCell>
        <mxCell id="qBSy8Zu0NFItvnrf-ppq-163" value="How to get approximate SRTF" style="rounded=1;whiteSpace=wrap;html=1;fillColor=#dae8fc;strokeColor=#6c8ebf;gradientColor=#7ea6e0;" vertex="1" parent="1">
          <mxGeometry x="680" y="1570" width="120" height="60" as="geometry" />
        </mxCell>
        <mxCell id="qBSy8Zu0NFItvnrf-ppq-165" value="shortest job with more ticket, long job get fewer" style="rounded=1;whiteSpace=wrap;html=1;" vertex="1" parent="1">
          <mxGeometry x="880" y="1570" width="120" height="60" as="geometry" />
        </mxCell>
        <mxCell id="qBSy8Zu0NFItvnrf-ppq-171" value="" style="edgeStyle=none;rounded=0;orthogonalLoop=1;jettySize=auto;html=1;" edge="1" parent="1" source="qBSy8Zu0NFItvnrf-ppq-168" target="qBSy8Zu0NFItvnrf-ppq-170">
          <mxGeometry relative="1" as="geometry" />
        </mxCell>
        <mxCell id="qBSy8Zu0NFItvnrf-ppq-168" value="avoid starvation" style="rounded=1;whiteSpace=wrap;html=1;" vertex="1" parent="1">
          <mxGeometry x="880" y="1680" width="120" height="60" as="geometry" />
        </mxCell>
        <mxCell id="qBSy8Zu0NFItvnrf-ppq-170" value="each job have atleast one ticket" style="rounded=1;whiteSpace=wrap;html=1;" vertex="1" parent="1">
          <mxGeometry x="1080" y="1680" width="120" height="60" as="geometry" />
        </mxCell>
      </root>
    </mxGraphModel>
  </diagram>
</mxfile>
